<svg width="48" height="48" viewBox="0 0 48 48" fill="none" xmlns="http://www.w3.org/2000/svg">
  <path d="M22.5 30H18V27H22.5V30ZM30 30H25.5V27H30V30ZM10.5 27H15V30H10.5V27ZM37.5 30H33V27H37.5V30Z" fill="#D72323"/>
  <path d="M33 36H15V33H12V36C12 36.7956 12.3161 37.5587 12.8787 38.1213C13.4413 38.6839 14.2044 39 15 39H33C33.7956 39 34.5587 38.6839 35.1213 38.1213C35.6839 37.5587 36 36.7956 36 36V33H33V36ZM27 9H15C14.2044 9 13.4413 9.31607 12.8787 9.87868C12.3161 10.4413 12 11.2044 12 12V24H15V12H27V18H33V24H36V18L27 9Z" fill="#57ACDC"/>
</svg>
